<svg width="32" height="32" viewBox="0 0 32 32" fill="none" xmlns="http://www.w3.org/2000/svg">
<rect width="31.88" height="32" rx="15.94" fill="#0000FF"/>
<path d="M20.7539 4.00737L10.8986 6.04453C10.8198 6.0608 10.7484 6.10422 10.6956 6.16795C10.6428 6.23169 10.6116 6.31213 10.6069 6.39663L10.0006 17.1976C9.9973 17.2568 10.0071 17.3161 10.0293 17.3706C10.0514 17.4252 10.0853 17.4735 10.1283 17.5118C10.1713 17.5501 10.2221 17.5773 10.2768 17.5913C10.3315 17.6052 10.3885 17.6056 10.4433 17.5922L13.1872 16.9242C13.4439 16.8617 13.6759 17.1003 13.6231 17.3726L12.8079 21.5837C12.7531 21.8671 13.0052 22.1094 13.2676 22.0253L14.9624 21.4822C15.2251 21.3981 15.4776 21.641 15.422 21.9247L14.1265 28.5393C14.0455 28.9531 14.5672 29.1787 14.7847 28.824L14.9301 28.5871L22.9608 11.6805C23.0954 11.3975 22.8634 11.0747 22.5688 11.1347L19.7443 11.7097C19.4789 11.7637 19.2531 11.5029 19.328 11.2291L21.1714 4.48786C21.2464 4.21333 21.0196 3.95247 20.7539 4.00737Z" fill="url(#paint0_linear_15_39)"/>
<defs>
<linearGradient id="paint0_linear_15_39" x1="573.888" y1="60.05" x2="901.918" y2="2193.18" gradientUnits="userSpaceOnUse">
<stop stop-color="#FFEA83"/>
<stop offset="0.08333" stop-color="#FFDD35"/>
<stop offset="1" stop-color="#FFA800"/>
</linearGradient>
</defs>
</svg>
